<?xml version="1.0" standalone="no"?>
<!DOCTYPE svg PUBLIC "-//W3C//DTD SVG 20010904//EN"
 "http://www.w3.org/TR/2001/REC-SVG-20010904/DTD/svg10.dtd">
<svg version="1.0" xmlns="http://www.w3.org/2000/svg"
 width="500.000000pt" height="500.000000pt" viewBox="0 0 500.000000 500.000000"
 preserveAspectRatio="xMidYMid meet">
<metadata>
Created by potrace 1.11, written by Peter Selinger 2001-2013
</metadata>
<g transform="translate(0.000000,500.000000) scale(0.100000,-0.100000)"
fill="#000000" stroke="none">
<path d="M2298 4995 c-2 -1 -32 -5 -68 -9 -36 -3 -76 -8 -90 -10 -14 -3 -41
-7 -60 -10 -19 -3 -66 -12 -105 -20 -589 -127 -1113 -462 -1471 -941 -41 -55
-78 -104 -82 -110 -8 -11 -95 -156 -129 -215 -109 -192 -226 -535 -259 -760
-3 -19 -7 -46 -10 -60 -25 -146 -26 -590 0 -715 2 -11 7 -40 10 -65 16 -117
86 -369 143 -509 310 -770 977 -1337 1783 -1515 198 -43 279 -51 545 -51 259
0 312 5 530 49 59 12 194 50 267 74 447 153 840 425 1132 786 153 189 273 386
360 591 22 50 45 104 52 121 14 32 80 255 88 297 2 12 9 45 16 72 6 28 13 68
16 90 3 22 7 45 9 52 26 81 26 657 0 736 -2 7 -6 28 -9 47 -24 156 -87 377
-153 535 -55 132 -202 403 -255 470 -4 6 -33 44 -64 85 -279 370 -669 663
-1104 828 -93 35 -178 63 -236 77 -11 3 -46 11 -79 19 -183 45 -345 63 -577
63 -108 1 -198 0 -200 -2z"/>
</g>
</svg>
